<svg width="32" height="32" viewBox="0 0 32 32" fill="none" xmlns="http://www.w3.org/2000/svg">
<g id="search">
<mask id="mask0_33_6" style="mask-type:alpha" maskUnits="userSpaceOnUse" x="0" y="0" width="32" height="32">
<rect id="Bounding box" width="32" height="32" fill="#D9D9D9"/>
</mask>
<g mask="url(#mask0_33_6)">
<path id="search_2" d="M25.5001 27.2L17.5334 19.2333C16.8667 19.7222 16.1357 20.1056 15.3403 20.3833C14.5449 20.6611 13.6986 20.8 12.8012 20.8C10.5782 20.8 8.68894 20.0222 7.13338 18.4667C5.57783 16.9111 4.80005 15.0222 4.80005 12.8C4.80005 10.5778 5.57783 8.68889 7.13338 7.13334C8.68894 5.57778 10.5778 4.8 12.8 4.8C15.0223 4.8 16.9112 5.57778 18.4667 7.13334C20.0223 8.68889 20.8001 10.5782 20.8001 12.8012C20.8001 13.6985 20.6612 14.5449 20.3834 15.3403C20.1056 16.1356 19.7223 16.8667 19.2334 17.5333L27.2001 25.5L25.5001 27.2ZM12.8 18.4C14.3556 18.4 15.6778 17.8556 16.7667 16.7667C17.8556 15.6778 18.4001 14.3556 18.4001 12.8C18.4001 11.2444 17.8556 9.92223 16.7667 8.83334C15.6778 7.74445 14.3556 7.2 12.8 7.2C11.2445 7.2 9.92227 7.74445 8.83338 8.83334C7.74449 9.92223 7.20005 11.2444 7.20005 12.8C7.20005 14.3556 7.74449 15.6778 8.83338 16.7667C9.92227 17.8556 11.2445 18.4 12.8 18.4Z" fill="#1C1B1F"/>
</g>
</g>
</svg>
